# xmcd
#
# Track frame offsets: 
#        150
#        17150
#        30650
#        39925
#        51900
#        66700
#        75100
#        92100
#        104700
#        119050
#        129350
#        141325
#        153850
#        173300
#
# Disc length: 2468 seconds
#
# Revision: 4
# Processed by: cddbd v1.5.1PL0 Copyright (c) Steve Scherf et al.
# Submitted via: ExactAudioCopy v0.95a5
#
DISCID=b609a20e
DTITLE=Various Artist - Somewhere In The Country Cd 2
DYEAR=1900
DGENRE=Country
TTITLE0=Lynn Anderson - Blue Bayou
TTITLE1=Jimmy Dean - Big Bad John
TTITLE2=Al Caiola - The Magnificent Seven
TTITLE3=Judy Miller - Queen Of The House
TTITLE4=Kingston Trio - Tom Dooley
TTITLE5=Bob Luman - Let's Think About Living
TTITLE6=Ferlin Husky - For The Good Times
TTITLE7=Kingston Trio - Greenback Dollar
TTITLE8=Gene Pitney - Somewhere In The Country
TTITLE9=Al Caiola - Bonanza
TTITLE10=Frankie Lane - High Noon
TTITLE11=The Highwayman - Michael
TTITLE12=Billy Joe Royal - To Love Somebody
TTITLE13=Skeeter Davies - End Of The World
EXTD=
EXTT0=
EXTT1=
EXTT2=
EXTT3=
EXTT4=
EXTT5=
EXTT6=
EXTT7=
EXTT8=
EXTT9=
EXTT10=
EXTT11=
EXTT12=
EXTT13=
PLAYORDER=
